<svg width="25" height="24" viewBox="0 0 25 24" fill="none" xmlns="http://www.w3.org/2000/svg">
<path d="M17.5235 3.03358L16.5689 2.77924C13.869 2.05986 12.519 1.70018 11.4555 2.31074C10.392 2.9213 10.0302 4.26367 9.30678 6.94841L8.28366 10.7452C7.5602 13.4299 7.19848 14.7723 7.8125 15.8298C8.42652 16.8874 9.77651 17.247 12.4765 17.9664L13.4311 18.2208C16.131 18.9401 17.481 19.2998 18.5445 18.6893C19.608 18.0787 19.9698 16.7363 20.6932 14.0516L21.7163 10.2548C22.4398 7.57005 22.8015 6.22768 22.1875 5.17016C21.5735 4.11264 20.2235 3.75295 17.5235 3.03358Z" stroke="white" stroke-width="1.5"/>
<path d="M17.3538 7.43306C17.3538 8.24714 16.6901 8.90709 15.8714 8.90709C15.0527 8.90709 14.389 8.24714 14.389 7.43306C14.389 6.61898 15.0527 5.95904 15.8714 5.95904C16.6901 5.95904 17.3538 6.61898 17.3538 7.43306Z" stroke="white" stroke-width="1.5"/>
<path d="M12.5 20.9463L11.5477 21.2056C8.85403 21.9391 7.50722 22.3059 6.44619 21.6833C5.38517 21.0608 5.02429 19.6921 4.30253 16.9547L3.28182 13.0834C2.56006 10.346 2.19918 8.97731 2.81177 7.89904C3.34167 6.96631 4.5 7.00027 6 7.00015" stroke="white" stroke-width="1.5" stroke-linecap="round"/>
</svg>
