<svg width="21" height="21" viewBox="0 0 21 21" fill="none" xmlns="http://www.w3.org/2000/svg">
<path fill-rule="evenodd" clip-rule="evenodd" d="M10.3072 1.4881e-07C12.4979 -9.85119e-06 14.2186 -1.98185e-05 15.562 0.18059C16.9386 0.36568 18.0309 0.75272 18.8891 1.61091C19.7473 2.46911 20.1343 3.56137 20.3194 4.93802C20.5 6.28143 20.5 8.0021 20.5 10.1928V10.3072C20.5 12.4979 20.5 14.2186 20.3194 15.562C20.1343 16.9386 19.7473 18.0309 18.8891 18.8891C18.0309 19.7473 16.9386 20.1343 15.562 20.3194C14.2186 20.5 12.4979 20.5 10.3072 20.5H10.1928C8.0021 20.5 6.28143 20.5 4.93802 20.3194C3.56137 20.1343 2.46911 19.7473 1.61091 18.8891C0.75272 18.0309 0.36568 16.9386 0.18059 15.562C-1.98185e-05 14.2186 -9.85119e-06 12.4979 1.4881e-07 10.3072V10.1928C-9.85119e-06 8.00212 -1.98185e-05 6.28144 0.18059 4.93802C0.36568 3.56137 0.75272 2.46911 1.61091 1.61091C2.46911 0.75272 3.56137 0.36568 4.93802 0.18059C6.28144 -1.98185e-05 8.00212 -9.85119e-06 10.1928 1.4881e-07H10.3072ZM10.25 6.75C9.6977 6.75 9.25 7.19772 9.25 7.75C9.25 8.3023 8.8023 8.75 8.25 8.75C7.69772 8.75 7.25 8.3023 7.25 7.75C7.25 6.09315 8.5931 4.75 10.25 4.75C11.9069 4.75 13.25 6.09315 13.25 7.75C13.25 8.3457 13.0753 8.9037 12.7741 9.3719C12.5933 9.6528 12.3837 9.9184 12.1971 10.1504L12.0949 10.277C11.9404 10.4682 11.8032 10.6381 11.676 10.8129C11.3599 11.2473 11.25 11.527 11.25 11.75C11.25 12.3023 10.8023 12.75 10.25 12.75C9.6977 12.75 9.25 12.3023 9.25 11.75C9.25 10.8684 9.6828 10.153 10.0588 9.6362C10.2187 9.4165 10.3941 9.1994 10.5493 9.0076L10.6389 8.8966C10.8239 8.6667 10.9741 8.4732 11.0922 8.2897C11.192 8.13454 11.25 7.95057 11.25 7.75C11.25 7.19772 10.8023 6.75 10.25 6.75ZM10.2455 13.75C9.6957 13.75 9.25 14.1977 9.25 14.75C9.25 15.3023 9.6957 15.75 10.2455 15.75H10.2545C10.8043 15.75 11.25 15.3023 11.25 14.75C11.25 14.1977 10.8043 13.75 10.2545 13.75H10.2455Z" fill="#005377"/>
</svg>
