<svg width="20" height="22" viewBox="0 0 20 22" fill="none" xmlns="http://www.w3.org/2000/svg">
<path fill-rule="evenodd" clip-rule="evenodd" d="M10.8064 4.53202e-07C12.6442 -1.95468e-05 14.0998 -2.96086e-05 15.239 0.15314C16.4114 0.31076 17.3604 0.64288 18.1088 1.39124C18.8571 2.13961 19.1892 3.08856 19.3469 4.26098C19.5 5.40018 19.5 6.8558 19.5 8.69354V12.8064C19.5 14.6441 19.5 16.0998 19.3469 17.239C19.1892 18.4114 18.8571 19.3604 18.1088 20.1088C17.3604 20.8571 16.4114 21.1892 15.239 21.3469C14.0998 21.5 12.6442 21.5 10.8065 21.5H8.6936C6.8559 21.5 5.40018 21.5 4.26098 21.3469C3.08856 21.1892 2.13961 20.8571 1.39124 20.1088C0.64288 19.3604 0.310761 18.4114 0.153141 17.239C-2.94894e-05 16.0998 -1.95468e-05 14.6442 4.53156e-07 12.8064V8.69358C-1.95468e-05 6.85583 -2.94894e-05 5.40019 0.153141 4.26098C0.310761 3.08856 0.64288 2.13961 1.39124 1.39124C2.13961 0.64288 3.08856 0.31076 4.26098 0.15314C5.40019 -2.96086e-05 6.85582 -1.95468e-05 8.6936 4.53202e-07H10.8064ZM10.6798 12.1414C10.9727 12.4343 11.4475 12.4343 11.7404 12.1414L14.2801 9.6018C14.573 9.3089 14.573 8.834 14.2801 8.5411C14.1172 8.37818 13.898 8.30588 13.6851 8.32421C13.6071 8.33092 13.527 8.3072 13.4772 8.24682C13.4335 8.19386 13.3878 8.13872 13.3403 8.08177C12.9342 7.59506 12.3861 6.96453 11.8357 6.41411C11.2853 5.8637 10.6547 5.31559 10.168 4.90948C10.1111 4.86196 10.0559 4.81626 10.003 4.7726C9.9426 4.72283 9.9189 4.64266 9.9256 4.5647C9.9439 4.35181 9.8716 4.13259 9.7087 3.96967C9.4158 3.67678 8.9409 3.67678 8.648 3.96967L6.10834 6.50935C5.81545 6.80225 5.81545 7.27712 6.10834 7.57001C6.27126 7.73293 6.49048 7.80523 6.70337 7.7869C6.78133 7.78019 6.86151 7.80391 6.91127 7.86429C6.95494 7.91726 7.00064 7.97239 7.04816 8.02934C7.24887 8.26989 7.48427 8.54557 7.73749 8.8294C7.8085 8.9089 7.8055 9.0301 7.73015 9.1055L5.29289 11.5427C4.90237 11.9333 4.90237 12.5664 5.29289 12.9569C5.68342 13.3475 6.31658 13.3475 6.70711 12.9569L9.1444 10.5197C9.2197 10.4443 9.341 10.4414 9.4205 10.5123C9.7042 10.7655 9.9799 11.0009 10.2204 11.2016C10.2774 11.2491 10.3325 11.2948 10.3855 11.3385C10.4459 11.3883 10.4696 11.4685 10.4629 11.5464C10.4446 11.7593 10.5169 11.9785 10.6798 12.1414ZM5.75 15.75C5.19772 15.75 4.75 16.1977 4.75 16.75C4.75 17.3023 5.19772 17.75 5.75 17.75H13.75C14.3023 17.75 14.75 17.3023 14.75 16.75C14.75 16.1977 14.3023 15.75 13.75 15.75H5.75Z" fill="#005377"/>
</svg>
