<svg width="21" height="21" viewBox="0 0 21 21" fill="none" xmlns="http://www.w3.org/2000/svg">
<path fill-rule="evenodd" clip-rule="evenodd" d="M4.93802 0.18059C6.28144 -1.98185e-05 8.00212 -9.85119e-06 10.1928 1.4881e-07H10.3072C12.4979 -9.85119e-06 14.2186 -1.98185e-05 15.562 0.18059C16.9386 0.36568 18.0309 0.75272 18.8891 1.61091C19.7473 2.46911 20.1343 3.56137 20.3194 4.93802C20.5 6.28144 20.5 8.00212 20.5 10.1928V10.3072C20.5 12.4979 20.5 14.2186 20.3194 15.562C20.1343 16.9386 19.7473 18.0309 18.8891 18.8891C18.0309 19.7473 16.9386 20.1343 15.562 20.3194C14.2186 20.5 12.4979 20.5 10.3072 20.5H10.1928C8.0021 20.5 6.28144 20.5 4.93802 20.3194C3.56137 20.1343 2.46911 19.7473 1.61091 18.8891C0.75271 18.0309 0.36568 16.9386 0.18059 15.562C-1.98185e-05 14.2186 -9.85119e-06 12.4979 1.4881e-07 10.3072V10.1928C-9.85119e-06 8.0021 -1.98185e-05 6.28144 0.18059 4.93802C0.36568 3.56137 0.75271 2.46911 1.61091 1.61091C2.46911 0.75272 3.56137 0.36568 4.93802 0.18059ZM16 14.25V6.25C16 5.83579 15.6642 5.5 15.25 5.5C14.8358 5.5 14.5 5.83579 14.5 6.25V14.25C14.5 14.6642 14.8358 15 15.25 15C15.6642 15 16 14.6642 16 14.25ZM4.5 10.25C4.5 10.6642 4.83579 11 5.25 11H9.5V11.311C9.5 11.5847 9.4999 11.8533 9.5236 12.0611C9.5421 12.2239 9.6038 12.6963 10.0221 12.9128C10.4407 13.1295 10.82 12.8845 10.9486 12.7982C11.1133 12.6877 11.307 12.5189 11.5045 12.3469L11.5326 12.3224C11.8348 12.0593 12.1702 11.7532 12.434 11.4502C12.5658 11.2989 12.696 11.13 12.7968 10.9515C12.8914 10.7838 13 10.5385 13 10.25C13 9.9615 12.8914 9.7162 12.7968 9.5485C12.696 9.37 12.5658 9.2011 12.434 9.0498C12.1702 8.7468 11.8348 8.4407 11.5326 8.17757L11.5045 8.15312C11.307 7.98106 11.1133 7.81231 10.9486 7.7018C10.82 7.61549 10.4407 7.37048 10.0221 7.58716C9.6038 7.80368 9.5421 8.2761 9.5236 8.4389C9.4999 8.6467 9.5 8.9153 9.5 9.189V9.5H5.25C4.83579 9.5 4.5 9.8358 4.5 10.25Z" fill="#005377"/>
</svg>
