<svg width="18" height="21" viewBox="0 0 18 21" fill="none" xmlns="http://www.w3.org/2000/svg">
<path fill-rule="evenodd" clip-rule="evenodd" d="M8.75 1.92C6.817 1.92 5.25 3.42432 5.25 5.28V6.77775C6.36773 6.73966 7.5154 6.72 8.75 6.72C9.9846 6.72 11.1323 6.73966 12.25 6.77775V5.28C12.25 3.42432 10.683 1.92 8.75 1.92ZM3.25 5.28V6.98603C1.68233 7.44659 0.49925 8.77066 0.27452 10.373C0.12636 11.4294 0 12.5393 0 13.68C0 14.8207 0.12636 15.9306 0.27452 16.987C0.54609 18.9233 2.21716 20.4533 4.27522 20.5441C5.70364 20.6072 7.1542 20.64 8.75 20.64C10.3458 20.64 11.7964 20.6072 13.2248 20.5441C15.2828 20.4533 16.9539 18.9233 17.2255 16.987C17.3736 15.9306 17.5 14.8207 17.5 13.68C17.5 12.5393 17.3736 11.4294 17.2255 10.373C17.0008 8.77066 15.8177 7.44659 14.25 6.98603V5.28C14.25 2.36393 11.7876 0 8.75 0C5.71243 0 3.25 2.36393 3.25 5.28ZM8.7433 12.24C7.9186 12.24 7.25 12.8847 7.25 13.68C7.25 14.4753 7.9186 15.12 8.7433 15.12H8.7567C9.5814 15.12 10.25 14.4753 10.25 13.68C10.25 12.8847 9.5814 12.24 8.7567 12.24H8.7433Z" fill="#005377"/>
</svg>
